<svg width="55" height="48" viewBox="0 0 55 48" fill="none" xmlns="http://www.w3.org/2000/svg">
<path d="M24.1993 24.3293C31.944 24.3289 34.7306 17.5613 35.4601 12.0023C36.3587 5.15412 32.648 0 24.1993 0C15.7518 0 12.0392 5.15373 12.9385 12.0023C13.6687 17.5613 16.4545 24.3297 24.1993 24.3293Z" fill="#EE4E31"/>
<path d="M41.1338 27.1463C41.383 27.1463 41.6306 27.1528 41.8765 27.1647C41.5079 26.7059 41.0813 26.3012 40.5821 25.9759C39.094 25.0065 37.1666 24.6885 35.4628 24.1042C34.6334 23.8199 33.8907 23.5374 33.1935 23.2159C30.8404 25.468 27.7718 26.6462 24.1984 26.6465C20.6262 26.6465 17.5579 25.4684 15.205 23.2159C14.5078 23.5375 13.7649 23.8199 12.9357 24.1042C11.2319 24.6886 9.30463 25.0065 7.81639 25.9759C5.24271 27.6523 4.57759 31.4237 4.055 33.9963C3.62372 36.1199 3.33398 38.287 3.24941 40.444C3.1839 42.1149 4.12914 42.3491 5.73079 42.8535C7.73623 43.4847 9.80691 43.9534 11.8915 44.3375C15.9174 45.0795 20.0672 45.6496 24.1991 45.6751C26.2012 45.6626 28.2074 45.5217 30.2017 45.296C28.725 43.4288 27.8589 41.167 27.8589 38.7317C27.859 32.3434 33.814 27.1463 41.1338 27.1463Z" fill="#EE4E31"/>
<path d="M41.1339 29.4634C35.2688 29.4634 30.5139 33.6131 30.5139 38.7317C30.5139 43.8503 35.2687 48 41.1339 48C46.999 48 51.7539 43.8503 51.7539 38.7317C51.7538 33.613 46.9989 29.4634 41.1339 29.4634ZM45.7801 40.3218H42.956V42.7864C42.956 43.6647 42.1402 44.3767 41.1339 44.3767C40.1276 44.3767 39.3118 43.6647 39.3118 42.7864V40.3218H36.4877C35.4813 40.3218 34.6655 39.6099 34.6655 38.7315C34.6655 37.8533 35.4813 37.1413 36.4877 37.1413H39.3118V34.6766C39.3118 33.7984 40.1276 33.0864 41.1339 33.0864C42.1403 33.0864 42.956 33.7984 42.956 34.6766V37.1413H45.7801C46.7865 37.1413 47.6023 37.8533 47.6023 38.7315C47.6022 39.61 46.7865 40.3218 45.7801 40.3218Z" fill="#EE4E31"/>
</svg>
