<svg width="465" height="179" viewBox="0 0 465 179" fill="none" xmlns="http://www.w3.org/2000/svg">
<path d="M62.53 93.2978H47.6485C47.1253 93.2978 46.6234 93.4441 46.2534 93.7047C45.8834 93.9652 45.6755 94.3185 45.6755 94.687V99.2861C45.6755 99.6545 45.8834 100.008 46.2534 100.268C46.6234 100.529 47.1253 100.675 47.6485 100.675H50.1146V107.566H60.0639V100.675H62.53C63.0533 100.675 63.5551 100.529 63.9251 100.268C64.2951 100.008 64.503 99.6545 64.503 99.2861V94.687C64.503 94.3185 64.2951 93.9652 63.9251 93.7047C63.5551 93.4441 63.0533 93.2978 62.53 93.2978Z" fill="#EE4E31"/>
<path d="M77.4353 135.389C68.3214 125.999 63.6622 114.819 64.1252 103.45C64.1335 103.188 64.0125 102.932 63.783 102.725C63.5534 102.519 63.2293 102.374 62.8657 102.317V100.329H47.1489V102.289H46.9323C46.7106 102.289 46.4914 102.322 46.2883 102.384C46.0852 102.447 45.9026 102.538 45.7519 102.653C45.6011 102.767 45.4855 102.902 45.4123 103.049C45.3391 103.197 45.3097 103.353 45.3261 103.509C46.5643 115.662 42.3833 126.56 32.7829 136.204C32.2304 136.758 31.9482 137.424 31.9785 138.1L33.6971 175.53C33.7384 176.365 34.236 177.156 35.0862 177.739C35.9363 178.322 37.0732 178.651 38.2596 178.657H73.8087C75.0087 178.651 76.1574 178.314 77.0101 177.72C77.8629 177.125 78.3523 176.32 78.374 175.475L79.0363 139.134C79.0559 137.8 78.4974 136.494 77.4353 135.389Z" fill="#3F3D56"/>
<path opacity="0.2" d="M59.4278 94.7964C59.4278 95.5912 58.9794 96.3536 58.1811 96.9156C57.3828 97.4777 56.3001 97.7934 55.1712 97.7934C54.0423 97.7934 52.9596 97.4777 52.1613 96.9156C51.363 96.3536 50.9146 95.5912 50.9146 94.7964" fill="black"/>
<path d="M71.8078 147.822H67.5031C67.0921 145.944 65.7403 144.232 63.6921 142.995C61.644 141.758 59.0348 141.078 56.3366 141.078C53.6383 141.078 51.0291 141.758 48.981 142.995C46.9329 144.232 45.581 145.944 45.1701 147.822H40.8651C40.407 147.822 39.9544 147.892 39.5382 148.026C39.1221 148.161 38.7522 148.358 38.454 148.602C38.1557 148.847 37.9362 149.134 37.8104 149.444C37.6846 149.754 37.6555 150.08 37.7252 150.399L42.4011 171.799H69.2507L74.9302 150.471C75.0162 150.148 75.0001 149.815 74.8829 149.497C74.7658 149.179 74.5505 148.883 74.2524 148.63C73.9543 148.377 73.5807 148.174 73.1581 148.034C72.7356 147.894 72.2746 147.822 71.8078 147.822Z" fill="#EE4E31"/>
<path d="M433.556 113.425L432.523 142.484L431.244 178.518H387.717L386.218 136.299L385.405 113.425H433.556Z" fill="#E6E6E6"/>
<path d="M412.37 97.9651H406.206V155.464H412.37V97.9651Z" fill="#EE4E31"/>
<path d="M430.474 135.32L429.309 176.622H389.633L388.268 128.233C391.842 127.526 395.585 127.345 399.263 127.701C402.941 128.057 406.476 128.943 409.647 130.303C416.275 133.063 423.722 134.549 430.474 135.32Z" fill="#3F3D56"/>
<path d="M399.455 139.97H393.8V143.952H399.455V139.97Z" fill="#E6E6E6"/>
<path d="M403.307 131.833H397.652V135.815H403.307V131.833Z" fill="#E6E6E6"/>
<path d="M415.451 137.466L410.909 135.094L407.54 138.292L412.082 140.664L415.451 137.466Z" fill="#E6E6E6"/>
<path d="M425.669 144.521L421.127 142.149L417.758 145.348L422.3 147.72L425.669 144.521Z" fill="#E6E6E6"/>
<path d="M408.335 148.59L403.792 146.218L400.424 149.416L404.966 151.788L408.335 148.59Z" fill="#E6E6E6"/>
<path d="M421.614 130.24C422.253 130.24 422.77 129.876 422.77 129.427C422.77 128.977 422.253 128.613 421.614 128.613C420.976 128.613 420.459 128.977 420.459 129.427C420.459 129.876 420.976 130.24 421.614 130.24Z" fill="#3F3D56"/>
<path d="M398.117 124.816C398.755 124.816 399.273 124.452 399.273 124.002C399.273 123.553 398.755 123.189 398.117 123.189C397.479 123.189 396.961 123.553 396.961 124.002C396.961 124.452 397.479 124.816 398.117 124.816Z" fill="#3F3D56"/>
<path d="M417.763 119.12C418.401 119.12 418.918 118.756 418.918 118.307C418.918 117.857 418.401 117.493 417.763 117.493C417.124 117.493 416.607 117.857 416.607 118.307C416.607 118.756 417.124 119.12 417.763 119.12Z" fill="#3F3D56"/>
<path d="M232.766 178.27C302.682 178.27 359.36 138.363 359.36 89.1348C359.36 39.907 302.682 0 232.766 0C162.85 0 106.172 39.907 106.172 89.1348C106.172 138.363 162.85 178.27 232.766 178.27Z" fill="#EE4E31"/>
<path opacity="0.2" d="M232.766 154.195C211.389 154.195 190.672 148.975 174.148 139.427C157.623 129.878 146.311 116.59 142.141 101.827C137.971 87.0648 141.199 71.7407 151.276 58.4662C161.354 45.1917 177.656 34.7882 197.407 29.0281C217.157 23.2681 239.132 22.508 259.589 26.8773C280.046 31.2467 297.719 40.4751 309.595 52.9903C321.472 65.5054 326.818 80.5329 324.723 95.5122C322.627 110.492 313.22 124.496 298.104 135.139C289.543 141.199 279.361 146.004 268.146 149.275C256.93 152.546 244.905 154.218 232.766 154.195ZM232.766 28.0875C184.958 28.0875 146.063 55.4732 146.063 89.1348C146.063 122.796 184.958 150.182 232.766 150.182C280.574 150.182 319.469 122.796 319.469 89.1348C319.469 55.4732 280.574 28.0875 232.766 28.0875Z" fill="black"/>
<path d="M232.766 152.188C282.224 152.188 322.318 123.958 322.318 89.1348C322.318 54.3113 282.224 26.0813 232.766 26.0813C183.308 26.0813 143.214 54.3113 143.214 89.1348C143.214 123.958 183.308 152.188 232.766 152.188Z" fill="#3F3D56"/>
<path d="M242.603 91.1411L242.683 91.1411C245.408 91.1572 248.077 90.5946 250.341 89.5268C252.605 88.4589 254.36 86.9353 255.376 85.1548C257.465 81.4359 258.518 77.4685 258.478 73.4692C258.335 56.5419 238.777 42.6551 214.738 42.4209C204.5 42.32 194.527 44.7149 186.511 49.1995C178.494 53.6842 172.927 59.9827 170.753 67.0274C168.578 74.0721 169.93 81.4295 174.58 87.8523C179.23 94.2752 186.891 99.3684 196.265 102.268C198.742 103.041 201.493 103.268 204.157 102.92C206.82 102.572 209.272 101.666 211.192 100.32C215.308 97.4059 220.203 95.0947 225.594 93.5194C230.986 91.9441 236.766 91.1358 242.603 91.1411Z" fill="#E6E6E6"/>
<path d="M229.808 81.683C237.901 81.683 244.462 77.0636 244.462 71.3652C244.462 65.6668 237.901 61.0473 229.808 61.0473C221.715 61.0473 215.154 65.6668 215.154 71.3652C215.154 77.0636 221.715 81.683 229.808 81.683Z" fill="#F9A825"/>
<path d="M197.96 70.2049C198.913 70.2049 199.686 69.6607 199.686 68.9894C199.686 68.3181 198.913 67.7739 197.96 67.7739C197.006 67.7739 196.233 68.3181 196.233 68.9894C196.233 69.6607 197.006 70.2049 197.96 70.2049Z" fill="#3F3D56"/>
<path d="M207.16 57.608C208.114 57.608 208.886 57.0638 208.886 56.3925C208.886 55.7212 208.114 55.177 207.16 55.177C206.207 55.177 205.434 55.7212 205.434 56.3925C205.434 57.0638 206.207 57.608 207.16 57.608Z" fill="#3F3D56"/>
<path d="M207.111 92.6432C208.065 92.6432 208.837 92.099 208.837 91.4277C208.837 90.7564 208.065 90.2122 207.111 90.2122C206.158 90.2122 205.385 90.7564 205.385 91.4277C205.385 92.099 206.158 92.6432 207.111 92.6432Z" fill="#3F3D56"/>
<path d="M241.304 55.0976C242.257 55.0976 243.03 54.5534 243.03 53.8821C243.03 53.2108 242.257 52.6666 241.304 52.6666C240.35 52.6666 239.577 53.2108 239.577 53.8821C239.577 54.5534 240.35 55.0976 241.304 55.0976Z" fill="#3F3D56"/>
<path d="M169.77 88.344C170.724 88.344 171.497 87.7999 171.497 87.1286C171.497 86.4573 170.724 85.9131 169.77 85.9131C168.817 85.9131 168.044 86.4573 168.044 87.1286C168.044 87.7999 168.817 88.344 169.77 88.344Z" fill="#3F3D56"/>
<path d="M261.667 111.49C265.264 111.49 268.18 109.437 268.18 106.904C268.18 104.372 265.264 102.319 261.667 102.319C258.07 102.319 255.154 104.372 255.154 106.904C255.154 109.437 258.07 111.49 261.667 111.49Z" fill="#FF6584"/>
<path opacity="0.2" d="M266.552 107.191C266.552 108.103 266.037 108.978 265.121 109.623C264.205 110.268 262.962 110.63 261.667 110.63C260.371 110.63 259.129 110.268 258.213 109.623C257.297 108.978 256.782 108.103 256.782 107.191" fill="black"/>
<path opacity="0.2" d="M256.782 106.618C256.782 105.706 257.297 104.831 258.213 104.186C259.129 103.541 260.371 103.179 261.667 103.179C262.962 103.179 264.205 103.541 265.121 104.186C266.037 104.831 266.552 105.706 266.552 106.618" fill="black"/>
<path d="M259.225 105.758C259.45 105.758 259.632 105.566 259.632 105.328C259.632 105.091 259.45 104.898 259.225 104.898C259 104.898 258.818 105.091 258.818 105.328C258.818 105.566 259 105.758 259.225 105.758Z" fill="#FF6584"/>
<path d="M261.667 105.185C261.892 105.185 262.074 104.992 262.074 104.755C262.074 104.517 261.892 104.325 261.667 104.325C261.442 104.325 261.26 104.517 261.26 104.755C261.26 104.992 261.442 105.185 261.667 105.185Z" fill="#FF6584"/>
<path d="M261.667 108.911C261.892 108.911 262.074 108.718 262.074 108.481C262.074 108.243 261.892 108.051 261.667 108.051C261.442 108.051 261.26 108.243 261.26 108.481C261.26 108.718 261.442 108.911 261.667 108.911Z" fill="#FF6584"/>
<path d="M264.109 106.618C264.334 106.618 264.516 106.425 264.516 106.188C264.516 105.95 264.334 105.758 264.109 105.758C263.884 105.758 263.702 105.95 263.702 106.188C263.702 106.425 263.884 106.618 264.109 106.618Z" fill="#FF6584"/>
<path d="M263.702 109.771C263.927 109.771 264.109 109.578 264.109 109.341C264.109 109.103 263.927 108.911 263.702 108.911C263.477 108.911 263.295 109.103 263.295 109.341C263.295 109.578 263.477 109.771 263.702 109.771Z" fill="#FF6584"/>
<path d="M258.818 108.337C259.042 108.337 259.225 108.145 259.225 107.908C259.225 107.67 259.042 107.478 258.818 107.478C258.593 107.478 258.411 107.67 258.411 107.908C258.411 108.145 258.593 108.337 258.818 108.337Z" fill="#FF6584"/>
<path d="M274.693 99.1661C278.29 99.1661 281.206 97.113 281.206 94.5803C281.206 92.0477 278.29 89.9946 274.693 89.9946C271.096 89.9946 268.18 92.0477 268.18 94.5803C268.18 97.113 271.096 99.1661 274.693 99.1661Z" fill="#FF6584"/>
<path opacity="0.2" d="M279.577 94.8669C279.577 95.7791 279.063 96.6539 278.147 97.2989C277.231 97.9439 275.988 98.3062 274.693 98.3062C273.397 98.3062 272.155 97.9439 271.239 97.2989C270.323 96.6539 269.808 95.7791 269.808 94.8669" fill="black"/>
<path opacity="0.2" d="M269.808 94.2937C269.808 93.3816 270.323 92.5068 271.239 91.8618C272.155 91.2168 273.397 90.8544 274.693 90.8544C275.988 90.8544 277.231 91.2168 278.147 91.8618C279.063 92.5068 279.577 93.3816 279.577 94.2937" fill="black"/>
<path d="M272.25 93.4339C272.475 93.4339 272.657 93.2414 272.657 93.004C272.657 92.7666 272.475 92.5741 272.25 92.5741C272.026 92.5741 271.843 92.7666 271.843 93.004C271.843 93.2414 272.026 93.4339 272.25 93.4339Z" fill="#FF6584"/>
<path d="M274.693 92.8607C274.918 92.8607 275.1 92.6682 275.1 92.4308C275.1 92.1934 274.918 92.0009 274.693 92.0009C274.468 92.0009 274.286 92.1934 274.286 92.4308C274.286 92.6682 274.468 92.8607 274.693 92.8607Z" fill="#FF6584"/>
<path d="M274.693 96.5866C274.918 96.5866 275.1 96.3941 275.1 96.1567C275.1 95.9193 274.918 95.7268 274.693 95.7268C274.468 95.7268 274.286 95.9193 274.286 96.1567C274.286 96.3941 274.468 96.5866 274.693 96.5866Z" fill="#FF6584"/>
<path d="M277.135 94.2937C277.36 94.2937 277.542 94.1013 277.542 93.8638C277.542 93.6264 277.36 93.4339 277.135 93.4339C276.91 93.4339 276.728 93.6264 276.728 93.8638C276.728 94.1013 276.91 94.2937 277.135 94.2937Z" fill="#FF6584"/>
<path d="M276.728 97.4464C276.953 97.4464 277.135 97.2539 277.135 97.0165C277.135 96.7791 276.953 96.5866 276.728 96.5866C276.503 96.5866 276.321 96.7791 276.321 97.0165C276.321 97.2539 276.503 97.4464 276.728 97.4464Z" fill="#FF6584"/>
<path d="M271.843 96.0134C272.068 96.0134 272.25 95.8209 272.25 95.5835C272.25 95.346 272.068 95.1535 271.843 95.1535C271.619 95.1535 271.436 95.346 271.436 95.5835C271.436 95.8209 271.619 96.0134 271.843 96.0134Z" fill="#FF6584"/>
<path d="M287.718 105.471C291.315 105.471 294.231 103.418 294.231 100.886C294.231 98.3531 291.315 96.3 287.718 96.3C284.121 96.3 281.206 98.3531 281.206 100.886C281.206 103.418 284.121 105.471 287.718 105.471Z" fill="#EE4E31"/>
<path opacity="0.2" d="M292.603 101.172C292.603 102.084 292.089 102.959 291.173 103.604C290.257 104.249 289.014 104.612 287.719 104.612C286.423 104.612 285.181 104.249 284.265 103.604C283.349 102.959 282.834 102.084 282.834 101.172" fill="black"/>
<path opacity="0.2" d="M282.834 100.599C282.834 99.6869 283.349 98.8121 284.265 98.1671C285.181 97.5222 286.423 97.1598 287.719 97.1598C289.014 97.1598 290.257 97.5222 291.173 98.1671C292.089 98.8121 292.603 99.6869 292.603 100.599" fill="black"/>
<path d="M285.276 99.7393C285.501 99.7393 285.683 99.5468 285.683 99.3094C285.683 99.0719 285.501 98.8795 285.276 98.8795C285.051 98.8795 284.869 99.0719 284.869 99.3094C284.869 99.5468 285.051 99.7393 285.276 99.7393Z" fill="#EE4E31"/>
<path d="M287.719 99.1661C287.943 99.1661 288.126 98.9736 288.126 98.7362C288.126 98.4987 287.943 98.3062 287.719 98.3062C287.494 98.3062 287.312 98.4987 287.312 98.7362C287.312 98.9736 287.494 99.1661 287.719 99.1661Z" fill="#EE4E31"/>
<path d="M287.719 102.892C287.943 102.892 288.126 102.699 288.126 102.462C288.126 102.225 287.943 102.032 287.719 102.032C287.494 102.032 287.312 102.225 287.312 102.462C287.312 102.699 287.494 102.892 287.719 102.892Z" fill="#EE4E31"/>
<path d="M290.161 100.599C290.386 100.599 290.568 100.407 290.568 100.169C290.568 99.9317 290.386 99.7393 290.161 99.7393C289.936 99.7393 289.754 99.9317 289.754 100.169C289.754 100.407 289.936 100.599 290.161 100.599Z" fill="#EE4E31"/>
<path d="M289.754 103.752C289.979 103.752 290.161 103.559 290.161 103.322C290.161 103.084 289.979 102.892 289.754 102.892C289.529 102.892 289.347 103.084 289.347 103.322C289.347 103.559 289.529 103.752 289.754 103.752Z" fill="#EE4E31"/>
<path d="M284.869 102.319C285.094 102.319 285.276 102.126 285.276 101.889C285.276 101.651 285.094 101.459 284.869 101.459C284.644 101.459 284.462 101.651 284.462 101.889C284.462 102.126 284.644 102.319 284.869 102.319Z" fill="#EE4E31"/>
<path d="M255.154 106.045C258.751 106.045 261.667 103.992 261.667 101.459C261.667 98.9263 258.751 96.8732 255.154 96.8732C251.557 96.8732 248.641 98.9263 248.641 101.459C248.641 103.992 251.557 106.045 255.154 106.045Z" fill="#EE4E31"/>
<path opacity="0.2" d="M260.039 101.746C260.039 102.658 259.524 103.532 258.608 104.177C257.692 104.822 256.45 105.185 255.154 105.185C253.859 105.185 252.616 104.822 251.7 104.177C250.784 103.532 250.27 102.658 250.27 101.746" fill="black"/>
<path opacity="0.2" d="M250.27 101.172C250.27 100.26 250.784 99.3854 251.7 98.7404C252.616 98.0954 253.859 97.733 255.154 97.733C256.45 97.733 257.692 98.0954 258.608 98.7404C259.524 99.3854 260.039 100.26 260.039 101.172" fill="black"/>
<path d="M252.712 100.312C252.937 100.312 253.119 100.12 253.119 99.8826C253.119 99.6451 252.937 99.4527 252.712 99.4527C252.487 99.4527 252.305 99.6451 252.305 99.8826C252.305 100.12 252.487 100.312 252.712 100.312Z" fill="#EE4E31"/>
<path d="M255.154 99.7393C255.379 99.7393 255.561 99.5468 255.561 99.3094C255.561 99.0719 255.379 98.8795 255.154 98.8795C254.929 98.8795 254.747 99.0719 254.747 99.3094C254.747 99.5468 254.929 99.7393 255.154 99.7393Z" fill="#EE4E31"/>
<path d="M255.154 103.465C255.379 103.465 255.561 103.273 255.561 103.035C255.561 102.798 255.379 102.605 255.154 102.605C254.929 102.605 254.747 102.798 254.747 103.035C254.747 103.273 254.929 103.465 255.154 103.465Z" fill="#EE4E31"/>
<path d="M257.596 101.172C257.821 101.172 258.004 100.98 258.004 100.742C258.004 100.505 257.821 100.312 257.596 100.312C257.372 100.312 257.189 100.505 257.189 100.742C257.189 100.98 257.372 101.172 257.596 101.172Z" fill="#EE4E31"/>
<path d="M257.189 104.325C257.414 104.325 257.596 104.132 257.596 103.895C257.596 103.658 257.414 103.465 257.189 103.465C256.964 103.465 256.782 103.658 256.782 103.895C256.782 104.132 256.964 104.325 257.189 104.325Z" fill="#EE4E31"/>
<path d="M252.305 102.892C252.53 102.892 252.712 102.699 252.712 102.462C252.712 102.225 252.53 102.032 252.305 102.032C252.08 102.032 251.898 102.225 251.898 102.462C251.898 102.699 252.08 102.892 252.305 102.892Z" fill="#EE4E31"/>
<path d="M269.808 108.051C273.405 108.051 276.321 105.998 276.321 103.465C276.321 100.933 273.405 98.8795 269.808 98.8795C266.211 98.8795 263.295 100.933 263.295 103.465C263.295 105.998 266.211 108.051 269.808 108.051Z" fill="#EE4E31"/>
<path opacity="0.2" d="M274.693 103.752C274.693 104.203 274.566 104.651 274.321 105.068C274.075 105.485 273.716 105.864 273.262 106.184C272.808 106.503 272.27 106.756 271.677 106.929C271.085 107.102 270.449 107.191 269.808 107.191C269.167 107.191 268.531 107.102 267.939 106.929C267.346 106.756 266.808 106.503 266.354 106.184C265.9 105.864 265.541 105.485 265.295 105.068C265.05 104.651 264.923 104.203 264.923 103.752" fill="black"/>
<path opacity="0.2" d="M264.923 103.179C264.923 102.727 265.05 102.28 265.295 101.862C265.541 101.445 265.9 101.066 266.354 100.747C266.808 100.427 267.346 100.174 267.939 100.001C268.531 99.8282 269.167 99.7393 269.808 99.7393C270.449 99.7393 271.085 99.8282 271.677 100.001C272.27 100.174 272.808 100.427 273.262 100.747C273.716 101.066 274.075 101.445 274.321 101.862C274.566 102.28 274.693 102.727 274.693 103.179" fill="black"/>
<path d="M267.366 102.319C267.591 102.319 267.773 102.126 267.773 101.889C267.773 101.651 267.591 101.459 267.366 101.459C267.141 101.459 266.959 101.651 266.959 101.889C266.959 102.126 267.141 102.319 267.366 102.319Z" fill="#EE4E31"/>
<path d="M269.808 101.746C270.033 101.746 270.215 101.553 270.215 101.316C270.215 101.078 270.033 100.886 269.808 100.886C269.583 100.886 269.401 101.078 269.401 101.316C269.401 101.553 269.583 101.746 269.808 101.746Z" fill="#EE4E31"/>
<path d="M269.808 105.471C270.033 105.471 270.215 105.279 270.215 105.042C270.215 104.804 270.033 104.612 269.808 104.612C269.583 104.612 269.401 104.804 269.401 105.042C269.401 105.279 269.583 105.471 269.808 105.471Z" fill="#EE4E31"/>
<path d="M272.25 103.179C272.475 103.179 272.657 102.986 272.657 102.749C272.657 102.511 272.475 102.319 272.25 102.319C272.026 102.319 271.843 102.511 271.843 102.749C271.843 102.986 272.026 103.179 272.25 103.179Z" fill="#EE4E31"/>
<path d="M271.843 106.331C272.068 106.331 272.25 106.139 272.25 105.901C272.25 105.664 272.068 105.471 271.843 105.471C271.619 105.471 271.436 105.664 271.436 105.901C271.436 106.139 271.619 106.331 271.843 106.331Z" fill="#EE4E31"/>
<path d="M266.959 104.898C267.184 104.898 267.366 104.706 267.366 104.468C267.366 104.231 267.184 104.038 266.959 104.038C266.734 104.038 266.552 104.231 266.552 104.468C266.552 104.706 266.734 104.898 266.959 104.898Z" fill="#EE4E31"/>
<path d="M279.985 112.923C283.582 112.923 286.497 110.87 286.497 108.337C286.497 105.805 283.582 103.752 279.985 103.752C276.388 103.752 273.472 105.805 273.472 108.337C273.472 110.87 276.388 112.923 279.985 112.923Z" fill="#FF6584"/>
<path opacity="0.2" d="M284.869 108.624C284.869 109.536 284.355 110.411 283.439 111.056C282.522 111.701 281.28 112.063 279.985 112.063C278.689 112.063 277.447 111.701 276.531 111.056C275.614 110.411 275.1 109.536 275.1 108.624" fill="black"/>
<path opacity="0.2" d="M275.1 108.051C275.1 107.139 275.614 106.264 276.531 105.619C277.447 104.974 278.689 104.612 279.985 104.612C281.28 104.612 282.522 104.974 283.439 105.619C284.355 106.264 284.869 107.139 284.869 108.051" fill="black"/>
<path d="M277.542 107.191C277.767 107.191 277.949 106.999 277.949 106.761C277.949 106.524 277.767 106.331 277.542 106.331C277.317 106.331 277.135 106.524 277.135 106.761C277.135 106.999 277.317 107.191 277.542 107.191Z" fill="#FF6584"/>
<path d="M279.984 106.618C280.209 106.618 280.392 106.425 280.392 106.188C280.392 105.95 280.209 105.758 279.984 105.758C279.76 105.758 279.577 105.95 279.577 106.188C279.577 106.425 279.76 106.618 279.984 106.618Z" fill="#FF6584"/>
<path d="M279.984 110.344C280.209 110.344 280.392 110.151 280.392 109.914C280.392 109.676 280.209 109.484 279.984 109.484C279.76 109.484 279.577 109.676 279.577 109.914C279.577 110.151 279.76 110.344 279.984 110.344Z" fill="#FF6584"/>
<path d="M282.427 108.051C282.652 108.051 282.834 107.858 282.834 107.621C282.834 107.384 282.652 107.191 282.427 107.191C282.202 107.191 282.02 107.384 282.02 107.621C282.02 107.858 282.202 108.051 282.427 108.051Z" fill="#FF6584"/>
<path d="M282.02 111.204C282.245 111.204 282.427 111.011 282.427 110.774C282.427 110.536 282.245 110.344 282.02 110.344C281.795 110.344 281.613 110.536 281.613 110.774C281.613 111.011 281.795 111.204 282.02 111.204Z" fill="#FF6584"/>
<path d="M277.135 109.771C277.36 109.771 277.542 109.578 277.542 109.341C277.542 109.103 277.36 108.911 277.135 108.911C276.91 108.911 276.728 109.103 276.728 109.341C276.728 109.578 276.91 109.771 277.135 109.771Z" fill="#FF6584"/>
<path d="M196.229 92.0699C197.183 92.0699 197.956 91.5257 197.956 90.8544C197.956 90.1831 197.183 89.6389 196.229 89.6389C195.276 89.6389 194.503 90.1831 194.503 90.8544C194.503 91.5257 195.276 92.0699 196.229 92.0699Z" fill="#3F3D56"/>
<path d="M243.154 134.974L201.694 126.878L203.282 122.725L244.742 130.82L243.154 134.974Z" fill="#F9A825"/>
<path d="M237.076 133.586C222.878 135.499 208.294 135.499 194.096 133.586V129.28C208.326 130.94 222.846 130.94 237.076 129.28V133.586Z" fill="#F9A825"/>
<path d="M241.494 120.668C227.297 122.582 212.712 122.582 198.514 120.668V116.362C212.744 118.023 227.265 118.023 241.494 116.362V120.668Z" fill="#F9A825"/>
<path d="M256.356 125.835C242.159 127.749 227.574 127.749 213.376 125.835V121.529C227.606 123.19 242.127 123.19 256.356 121.529V125.835Z" fill="#F9A825"/>
<path d="M259.972 130.715C245.774 132.629 231.189 132.629 216.992 130.715V126.409C231.221 128.07 245.742 128.07 259.972 126.409V130.715Z" fill="#F9A825"/>
<path d="M272.575 137.092L230.172 142.107L229.188 137.859L271.591 132.844L272.575 137.092Z" fill="#F9A825"/>
<path d="M266.241 137.644C254.485 143.61 241.235 147.962 227.187 150.469L224.672 146.556C238.597 143.811 251.789 139.479 263.725 133.731L266.241 137.644Z" fill="#F9A825"/>
<path d="M262.708 124.588C250.952 130.555 237.703 134.906 223.655 137.413L221.139 133.5C235.064 130.755 248.256 126.423 260.193 120.675L262.708 124.588Z" fill="#F9A825"/>
<path d="M279.232 124.848C267.476 130.815 254.226 135.166 240.178 137.673L237.663 133.761C251.587 131.015 264.78 126.683 276.716 120.935L279.232 124.848Z" fill="#F9A825"/>
<path d="M285.368 128.203C273.612 134.17 260.363 138.521 246.315 141.028L243.799 137.116C257.724 134.371 270.916 130.038 282.853 124.291L285.368 128.203Z" fill="#F9A825"/>
<path d="M233.987 119.802H231.952V121.235H233.987V119.802Z" fill="#00BF71"/>
<path d="M240.093 144.737H238.058V146.17H240.093V144.737Z" fill="#00BF71"/>
<path d="M207.529 119.802H205.493V121.235H207.529V119.802Z" fill="#00BF71"/>
<path d="M254.747 137.571H252.712V139.004H254.747V137.571Z" fill="#00BF71"/>
<path d="M255.968 129.26H253.933V130.693H255.968V129.26Z" fill="#00BF71"/>
<path d="M222.394 125.336L220.036 124.21L219.122 125.158L221.48 126.285L222.394 125.336Z" fill="#00BF71"/>
<path d="M246.41 128.489L244.052 127.362L243.138 128.311L245.496 129.437L246.41 128.489Z" fill="#00BF71"/>
<path d="M217.102 133.934L214.744 132.808L213.83 133.757L216.188 134.883L217.102 133.934Z" fill="#00BF71"/>
<path d="M232.029 133.851L233.629 132.191L232.282 131.547L230.682 133.207L232.029 133.851Z" fill="#00BF71"/>
<path d="M243.02 135.857L244.62 134.197L243.272 133.553L241.672 135.214L243.02 135.857Z" fill="#00BF71"/>
<path d="M272.33 128.978L273.93 127.318L272.583 126.674L270.983 128.335L272.33 128.978Z" fill="#00BF71"/>
</svg>
