<svg width="63" height="58" viewBox="0 0 63 58" fill="none" xmlns="http://www.w3.org/2000/svg">
<g clip-path="url(#clip0)">
<path d="M31.5001 30.8943C40.8228 30.8938 44.177 22.3002 45.0553 15.2412C46.137 6.5449 41.6705 0 31.5001 0C21.3314 0 16.8624 6.54443 17.9449 15.2411C18.824 22.3001 22.1772 30.8949 31.5001 30.8943Z" fill="#EE4E31"/>
<path d="M56.7187 51.3573C56.6168 48.6181 56.2681 45.8664 55.7489 43.1698C55.1198 39.9031 54.3191 35.114 51.2212 32.9852C49.4296 31.7543 47.1096 31.3505 45.0586 30.6082C44.0604 30.2471 43.1661 29.8885 42.3269 29.4803C39.4941 32.3402 35.8004 33.8362 31.4989 33.8364C27.1986 33.8364 23.5053 32.3404 20.6729 29.4803C19.8336 29.8886 18.9394 30.2473 17.9411 30.6082C15.8901 31.3505 13.5701 31.7542 11.7788 32.9852C8.68065 35.114 7.88007 39.9031 7.2511 43.1698C6.73176 45.8664 6.383 48.6181 6.28119 51.3573C6.20234 53.479 7.34025 53.7764 9.26823 54.4169C11.6825 55.2185 14.175 55.8136 16.6842 56.3014C21.5304 57.2435 26.5257 57.9676 31.4996 58C36.4735 57.9675 41.4689 57.2435 46.315 56.3014C48.8242 55.8138 51.3169 55.2187 53.731 54.4169C55.6597 53.7766 56.7975 53.4792 56.7187 51.3573Z" fill="#EE4E31"/>
</g>
<defs>
<clipPath id="clip0">
<rect width="63" height="58" fill="white"/>
</clipPath>
</defs>
</svg>
